<svg width="10" height="10" viewBox="0 0 10 10" fill="none" xmlns="http://www.w3.org/2000/svg">
<path d="M5.48985 4.98349L7.91985 2.55349C7.97446 2.48972 8.00299 2.40769 7.99975 2.3238C7.99651 2.23991 7.96173 2.16033 7.90237 2.10096C7.843 2.0416 7.76342 2.00682 7.67953 2.00358C7.59564 2.00034 7.51362 2.02888 7.44985 2.08349L5.01985 4.51349L2.58985 2.08015C2.52608 2.02554 2.44406 1.99701 2.36016 2.00025C2.27627 2.00349 2.19669 2.03827 2.13733 2.09763C2.07796 2.157 2.04318 2.23658 2.03994 2.32047C2.0367 2.40436 2.06524 2.48639 2.11985 2.55015L4.54985 4.98349L2.11651 7.41349C2.08162 7.44337 2.05328 7.48014 2.03327 7.5215C2.01327 7.56285 2.00202 7.60789 2.00025 7.6538C1.99848 7.69971 2.00621 7.74549 2.02297 7.78826C2.03973 7.83104 2.06515 7.86988 2.09763 7.90237C2.13012 7.93485 2.16897 7.96027 2.21174 7.97703C2.25452 7.99379 2.30029 8.00152 2.3462 7.99975C2.39211 7.99798 2.43715 7.98674 2.4785 7.96673C2.51986 7.94672 2.55663 7.91838 2.58651 7.88349L5.01985 5.45349L7.44985 7.88349C7.51362 7.93809 7.59564 7.96663 7.67953 7.96339C7.76342 7.96015 7.843 7.92537 7.90237 7.86601C7.96173 7.80664 7.99651 7.72706 7.99975 7.64317C8.00299 7.55928 7.97446 7.47725 7.91985 7.41349L5.48985 4.98349Z" fill="white"/>
</svg>
